<svg id="Layer_1" data-name="Layer 1" xmlns="http://www.w3.org/2000/svg" viewBox="0 0 95.33 100"><defs><style>.cls-1{fill:#0a729b;}</style></defs><path class="cls-1" d="M30.42,95.53H6.8V4.46H70.18v17a2.23,2.23,0,0,0,4.46,0V3.55A3.55,3.55,0,0,0,71.1,0H5.88A3.55,3.55,0,0,0,2.34,3.55v92.9A3.55,3.55,0,0,0,5.88,100H30.42a2.24,2.24,0,0,0,0-4.47Z" transform="translate(-2.34)"/><path class="cls-1" d="M14.21,51.59a2.23,2.23,0,0,0,0,4.46H40.55a2.23,2.23,0,0,0,0-4.46Z" transform="translate(-2.34)"/><path class="cls-1" d="M25,85.54a2.23,2.23,0,0,0,0-4.46H14.21a2.23,2.23,0,1,0,0,4.46Z" transform="translate(-2.34)"/><path class="cls-1" d="M42.78,69.26A2.23,2.23,0,0,0,40.56,67H14.21a2.23,2.23,0,0,0,0,4.46H40.55A2.23,2.23,0,0,0,42.78,69.26Z" transform="translate(-2.34)"/><rect class="cls-1" x="9.64" y="10.26" width="30.8" height="34.31" rx="4.33"/><path class="cls-1" d="M91.2,65.84l6.46-1.07L96,54.67l-6.46,1.06a26.67,26.67,0,0,0-5.71-9.22l3.81-5.31-8.34-6-3.81,5.31a27.09,27.09,0,0,0-10.56-2.44l-1.06-6.46L53.72,33.3l1.07,6.46c-.36.13-.7.3-1.06.45a29.27,29.27,0,0,1,4,7.64,18.23,18.23,0,0,1,3.48-1A18.44,18.44,0,1,1,51.09,78,29.33,29.33,0,0,1,47.84,81a28.92,28.92,0,0,1-3.62,2.33c.11.13.21.27.33.39L40.74,89l8.35,6,3.81-5.3a26.87,26.87,0,0,0,10.56,2.44l1,6.47L74.64,96.9l-1.07-6.46a27,27,0,0,0,9.21-5.7l5.31,3.81,6-8.35-5.31-3.81A26.87,26.87,0,0,0,91.2,65.84Z" transform="translate(-2.34)"/></svg>