<svg id="Layer_1" data-name="Layer 1" xmlns="http://www.w3.org/2000/svg" viewBox="0 0 82.98 100"><defs><style>.cls-1{fill:#0a729b;}</style></defs><path class="cls-1" d="M43.09,86.17H11.7v-83h66V51.6a1.6,1.6,0,0,0,3.19,0V1.6A1.59,1.59,0,0,0,79.26,0H10.11a1.6,1.6,0,0,0-1.6,1.6V87.77a1.6,1.6,0,0,0,1.6,1.59h33a1.6,1.6,0,0,0,0-3.19Z" transform="translate(-8.51)"/><path class="cls-1" d="M72.87,51.39a1.6,1.6,0,0,0,1.6-1.59V8a1.6,1.6,0,0,0-1.6-1.6H16.49A1.6,1.6,0,0,0,14.89,8v73.4a1.6,1.6,0,0,0,1.6,1.6H41.28a1.6,1.6,0,1,0,0-3.19H18.09V46.28H71.28V49.8A1.59,1.59,0,0,0,72.87,51.39Zm-54.78-8.3V9.57H71.28V43.09Z" transform="translate(-8.51)"/><path class="cls-1" d="M46.19,62.55a1.6,1.6,0,1,0,0-3.19H35.11a1.6,1.6,0,0,0-1.6,1.6V71.6a1.6,1.6,0,0,0,1.6,1.59h6.4a1.6,1.6,0,1,0,0-3.19H36.7V62.55Z" transform="translate(-8.51)"/><path class="cls-1" d="M49.47,54.57A1.6,1.6,0,0,0,47.87,53H41.49a1.6,1.6,0,1,0,0,3.19h6.38A1.6,1.6,0,0,0,49.47,54.57Z" transform="translate(-8.51)"/><path class="cls-1" d="M54.26,22.55H35.11a1.6,1.6,0,0,0-1.6,1.6V34.79a1.59,1.59,0,0,0,1.6,1.59H54.26a1.59,1.59,0,0,0,1.59-1.59V24.15A1.6,1.6,0,0,0,54.26,22.55Zm-1.6,10.64h-16V25.74h16Z" transform="translate(-8.51)"/><path class="cls-1" d="M41.49,19.36h6.38a1.6,1.6,0,1,0,0-3.19H41.49a1.6,1.6,0,1,0,0,3.19Z" transform="translate(-8.51)"/><path class="cls-1" d="M68.62,54.26A22.87,22.87,0,1,0,91.49,77.13,22.91,22.91,0,0,0,68.62,54.26Zm0,42.55A19.68,19.68,0,1,1,88.3,77.13,19.7,19.7,0,0,1,68.62,96.81Z" transform="translate(-8.51)"/><path class="cls-1" d="M43.09,86.17H11.7v-83h66V51.6a1.6,1.6,0,0,0,3.19,0V1.6A1.59,1.59,0,0,0,79.26,0H10.11a1.6,1.6,0,0,0-1.6,1.6V87.77a1.6,1.6,0,0,0,1.6,1.59h33a1.6,1.6,0,0,0,0-3.19Z" transform="translate(-8.51)"/><path class="cls-1" d="M72.87,51.39a1.6,1.6,0,0,0,1.6-1.59V8a1.6,1.6,0,0,0-1.6-1.6H16.49A1.6,1.6,0,0,0,14.89,8v73.4a1.6,1.6,0,0,0,1.6,1.6H41.28a1.6,1.6,0,1,0,0-3.19H18.09V46.28H71.28V49.8A1.59,1.59,0,0,0,72.87,51.39Zm-54.78-8.3V9.57H71.28V43.09Z" transform="translate(-8.51)"/><path class="cls-1" d="M46.19,62.55a1.6,1.6,0,1,0,0-3.19H35.11a1.6,1.6,0,0,0-1.6,1.6V71.6a1.6,1.6,0,0,0,1.6,1.59h6.4a1.6,1.6,0,1,0,0-3.19H36.7V62.55Z" transform="translate(-8.51)"/><path class="cls-1" d="M49.47,54.57A1.6,1.6,0,0,0,47.87,53H41.49a1.6,1.6,0,1,0,0,3.19h6.38A1.6,1.6,0,0,0,49.47,54.57Z" transform="translate(-8.51)"/><path class="cls-1" d="M54.26,22.55H35.11a1.6,1.6,0,0,0-1.6,1.6V34.79a1.59,1.59,0,0,0,1.6,1.59H54.26a1.59,1.59,0,0,0,1.59-1.59V24.15A1.6,1.6,0,0,0,54.26,22.55Zm-1.6,10.64h-16V25.74h16Z" transform="translate(-8.51)"/><path class="cls-1" d="M41.49,19.36h6.38a1.6,1.6,0,1,0,0-3.19H41.49a1.6,1.6,0,1,0,0,3.19Z" transform="translate(-8.51)"/><path class="cls-1" d="M79.26,75.53H71.81a1.6,1.6,0,0,1-1.6-1.59V66.49a1.6,1.6,0,1,0-3.19,0v7.45a1.59,1.59,0,0,1-1.59,1.59H58a1.6,1.6,0,1,0,0,3.19h7.45A1.6,1.6,0,0,1,67,80.32v7.45a1.6,1.6,0,0,0,3.19,0V80.32a1.6,1.6,0,0,1,1.6-1.6h7.45a1.6,1.6,0,0,0,0-3.19Z" transform="translate(-8.51)"/><path class="cls-1" d="M68.62,54.26A22.87,22.87,0,1,0,91.49,77.13,22.91,22.91,0,0,0,68.62,54.26ZM79.26,81.92H73.4v5.85a4.79,4.79,0,0,1-9.57,0V81.92H58a4.79,4.79,0,0,1,0-9.58h5.85V66.49a4.79,4.79,0,1,1,9.57,0v5.85h5.86a4.79,4.79,0,0,1,0,9.58Z" transform="translate(-8.51)"/></svg>