<svg id="Layer_1" data-name="Layer 1" xmlns="http://www.w3.org/2000/svg" viewBox="0 0 99.53 84"><defs><style>.cls-1{fill:#0a729b;}</style></defs><circle class="cls-1" cx="85.38" cy="35.87" r="8.02"/><path class="cls-1" d="M5,74,.23,84H1.35L2.9,80.74H7.2L8.77,84H9.85L5.19,74ZM3.36,79.77l1.71-3.61,1.7,3.61Z" transform="translate(-0.23 -0.03)"/><rect class="cls-1" x="12.41" y="74.01" width="1" height="9.98"/><polygon class="cls-1" points="16.1 74.99 18.32 74.99 18.32 84 19.34 84 19.34 74.99 21.57 74.99 21.57 74.01 16.1 74.01 16.1 74.99"/><path class="cls-1" d="M29.75,79.2a3.71,3.71,0,0,0-1.2-.62,2.34,2.34,0,0,0,.95-.89,2.27,2.27,0,0,0,.33-1.21,2.42,2.42,0,0,0-.37-1.29,2.31,2.31,0,0,0-1-.87A4.65,4.65,0,0,0,26.62,74h-2V84H27.4a3.29,3.29,0,0,0,2.36-.83,2.69,2.69,0,0,0,.87-2,2.52,2.52,0,0,0-.23-1.1A2.48,2.48,0,0,0,29.75,79.2ZM25.63,75h1.16a2.42,2.42,0,0,1,1.53.39,1.34,1.34,0,0,1,.48,1.07A1.65,1.65,0,0,1,27.73,78a4.4,4.4,0,0,1-1.53.19h-.57Zm3.66,7.14a1.74,1.74,0,0,1-.82.67,4.44,4.44,0,0,1-1.6.22H25.63V79.22h.57a8.85,8.85,0,0,1,1.77.12,2.23,2.23,0,0,1,1.2.68,1.7,1.7,0,0,1,.43,1.16A1.68,1.68,0,0,1,29.29,82.16Z" transform="translate(-0.23 -0.03)"/><path class="cls-1" d="M36.55,78.41c-.73-.51-1.16-.83-1.29-1a2.12,2.12,0,0,1-.49-.63,1.39,1.39,0,0,1-.14-.6,1.13,1.13,0,0,1,.38-.86A1.44,1.44,0,0,1,36,75a1.77,1.77,0,0,1,.87.23,4,4,0,0,1,1,.93l.81-.58a4.4,4.4,0,0,0-1.3-1.23A2.75,2.75,0,0,0,36,74a2.72,2.72,0,0,0-1.23.29,2.23,2.23,0,0,0-.88.81,2.09,2.09,0,0,0-.31,1.13,2.32,2.32,0,0,0,.53,1.45A8.41,8.41,0,0,0,35.68,79a7.81,7.81,0,0,1,1.71,1.53,1.51,1.51,0,0,1,.34.93,1.46,1.46,0,0,1-.23.8,1.64,1.64,0,0,1-.67.6,2.16,2.16,0,0,1-.94.22c-.79,0-1.48-.52-2.07-1.57L33,82a4.23,4.23,0,0,0,1.36,1.55A3,3,0,0,0,36,84a2.84,2.84,0,0,0,2-.76,2.37,2.37,0,0,0,.82-1.8A2.52,2.52,0,0,0,38.33,80,6.93,6.93,0,0,0,36.55,78.41Z" transform="translate(-0.23 -0.03)"/><path class="cls-1" d="M99.76,84a7.22,7.22,0,0,1-1.4-.48,7.73,7.73,0,0,1-2-1.26,8,8,0,0,1-1-1,7.72,7.72,0,0,1-1.2-2.06,6.54,6.54,0,0,1-.34-1.06,1.74,1.74,0,0,1-.05-.22,7.79,7.79,0,0,1-.18-1.68V51.94h-16v3.22L75.8,51.94,59,21.74l-4-7.29L46.93,0l-8,14.42L18.07,51.94,25.2,68l8.92-16L46.93,28.88l4,7.29,8.77,15.77H42.21L33.29,68H68.67l8.92,16H99.76Z" transform="translate(-0.23 -0.03)"/></svg>