<svg id="Layer_1" data-name="Layer 1" xmlns="http://www.w3.org/2000/svg" viewBox="0 0 100 84.05"><defs><style>.cls-1{fill:#0a729b;}</style></defs><path class="cls-1" d="M97.2,17.83a9.45,9.45,0,0,0-6.7-2.73H60.33v-3A4.14,4.14,0,0,0,56.19,8H43.75a4.14,4.14,0,0,0-4.14,4.15v3H9.5c-.35,0-.7,0-1,.05A9.46,9.46,0,0,0,.05,25.54L2.48,48.73a9.41,9.41,0,0,0,4.88,7.34V82.58A9.46,9.46,0,0,0,16.81,92H83.13a9.46,9.46,0,0,0,9.45-9.45V56.07a9.41,9.41,0,0,0,4.88-7.33L100,25.54c0-.34,0-.69,0-1A9.41,9.41,0,0,0,97.2,17.83ZM4.79,48.49,3,31.64c2.39-8.59,10.35-12.53,15.56-14.22h72a7.14,7.14,0,0,1,7.13,7.09,7,7,0,0,1,0,.79l-.23,2.11C93.91,34.07,84,50.35,68,56.14l-6.71.41,0,.48a5.71,5.71,0,0,0-5.66-5H44.27a5.7,5.7,0,0,0-5.66,5l0-.47L11.49,54.87A7.08,7.08,0,0,1,4.79,48.49ZM90.26,82.58a7.14,7.14,0,0,1-7.13,7.13H16.81a7.14,7.14,0,0,1-7.13-7.13V57a9.21,9.21,0,0,0,1.67.24L38.5,58.87l.07-1.16a5.7,5.7,0,0,0,5.7,5.7h11.4a5.7,5.7,0,0,0,5.7-5.7l.07,1.16,27.14-1.68A9.45,9.45,0,0,0,90.26,57Z" transform="translate(0 -7.97)"/></svg>