<svg id="Layer_1" data-name="Layer 1" xmlns="http://www.w3.org/2000/svg" viewBox="0 0 97.6 100"><defs><style>.cls-1{fill:#0a729b;}</style></defs><path class="cls-1" d="M72.29,32.43c4.52,0,10.81,0,16.19,0a3,3,0,0,0,2.24-5.1C83.86,20.48,71.58,8.05,64.53,1A3.11,3.11,0,0,0,59.2,3.1V19.71A13,13,0,0,0,72.29,32.43Z" transform="translate(-1.2)"/><path class="cls-1" d="M88.05,74.81c-3.71-22.33-36-13.85-28.37,7.43l-.1,0c-11.19.81-11.19,17,0,17.81H86.05a12.9,12.9,0,0,0,8.67-3.33C102.58,89.81,98.39,76.1,88.05,74.81Z" transform="translate(-1.2)"/><path class="cls-1" d="M86.91,39H73.15A20.46,20.46,0,0,1,52.67,18.52V4.76A4.77,4.77,0,0,0,47.91,0H27.72C13.06,0,1.2,9.52,1.2,26.52V68.66c0,17,11.86,26.52,26.52,26.52H41.53a2.72,2.72,0,0,0,2.57-3,10.86,10.86,0,0,1,0-1.14,15.82,15.82,0,0,1,6.19-12.76A2.75,2.75,0,0,0,51.39,76a20.41,20.41,0,0,1,5.76-14.62,23,23,0,0,1,23.05-6,20.53,20.53,0,0,1,8.33,4.95c1,1,3.14.33,3.14-1.1V43.76A4.77,4.77,0,0,0,86.91,39ZM29.2,54.64h-16c-.64,0-1.17-.9-1.17-2s.53-2,1.17-2h16c.65,0,1.17.89,1.17,2S29.85,54.64,29.2,54.64ZM41.37,40.4H14.05a2,2,0,0,1,0-4H41.37a2,2,0,0,1,0,4Zm0-8.58H14.05a2,2,0,0,1,0-4H41.37a2,2,0,0,1,0,4Z" transform="translate(-1.2)"/></svg>