<svg id="Layer_1" data-name="Layer 1" xmlns="http://www.w3.org/2000/svg" viewBox="0 0 99.47 100"><defs><style>.cls-1{fill:#0a729b;}</style></defs><path class="cls-1" d="M33.77,27.11A17.72,17.72,0,1,0,51.68,9.58,17.72,17.72,0,0,0,33.77,27.11ZM51.31,15.79A11.62,11.62,0,0,1,63,27.29a11.5,11.5,0,1,1-11.68-11.5Z" transform="translate(-0.26)"/><path class="cls-1" d="M62.43,55.55l-.28-6.37a64.05,64.05,0,0,0-40.41,6.21,5.5,5.5,0,0,0-2.82,5V71.43a3.11,3.11,0,1,0,6.21,0V60.77A58.8,58.8,0,0,1,62.43,55.55Z" transform="translate(-0.26)"/><path class="cls-1" d="M96.63,62.7H75.8V58.1a3.11,3.11,0,0,0-6.22,0v4.6H46.89a3.11,3.11,0,0,0-3.11,3.11V96.89A3.11,3.11,0,0,0,46.89,100H96.63a3.11,3.11,0,0,0,3.11-3.11V65.81A3.11,3.11,0,0,0,96.63,62.7ZM93.52,93.78H50V68.92H69.58v1.27a3.11,3.11,0,0,0,6.22,0V68.92H93.52Z" transform="translate(-0.26)"/><rect class="cls-1" x="61.58" y="79.55" width="18.53" height="4.35"/><path class="cls-1" d="M30,38.58a23.06,23.06,0,0,1-2.3-6.22A55.85,55.85,0,0,0,3,38.58,5.2,5.2,0,0,0,.26,43.15v9.63a3.11,3.11,0,0,0,6.22,0v-9A49.71,49.71,0,0,1,30,38.58Z" transform="translate(-0.26)"/><path class="cls-1" d="M97,38.55a55.31,55.31,0,0,0-22.13-6.22,23.45,23.45,0,0,1-2.27,6.22,49.24,49.24,0,0,1,21,5.22v9a3.11,3.11,0,0,0,6.22,0V43.15A5.21,5.21,0,0,0,97,38.55Z" transform="translate(-0.26)"/><path class="cls-1" d="M27.62,31.33a23.78,23.78,0,0,1-.44-4V25.21a9.54,9.54,0,0,1,1.68-19A9.79,9.79,0,0,1,35.7,9,25.16,25.16,0,0,1,41,5.63,15.95,15.95,0,0,0,13,15.79,15.85,15.85,0,0,0,27.62,31.33Z" transform="translate(-0.26)"/><path class="cls-1" d="M79.06,10.38a9.77,9.77,0,0,1,1.75,5.38,9.61,9.61,0,0,1-5.57,8.61,21.47,21.47,0,0,1,.19,2.89A24.48,24.48,0,0,1,75.12,31,15.84,15.84,0,0,0,87,15.76,15.92,15.92,0,0,0,71,0,16.1,16.1,0,0,0,59.57,4.82a24.37,24.37,0,0,1,5.91,3.11A9.75,9.75,0,0,1,79.06,10.38Z" transform="translate(-0.26)"/></svg>