<svg id="Layer_1" data-name="Layer 1" xmlns="http://www.w3.org/2000/svg" viewBox="0 0 100 93.33"><defs><style>.cls-1{fill:#0a729b;}</style></defs><rect class="cls-1" y="10" width="16.67" height="83.33" rx="6.67"/><path class="cls-1" d="M40,26.67H26.67A6.66,6.66,0,0,0,20,33.33v5.84a.83.83,0,0,0,.83.83h25a.84.84,0,0,0,.84-.83V33.33A6.67,6.67,0,0,0,40,26.67Z" transform="translate(0 -3.33)"/><path class="cls-1" d="M46.25,83.33H20.42a.42.42,0,0,0-.42.42V90a6.67,6.67,0,0,0,6.67,6.67H40A6.67,6.67,0,0,0,46.67,90V83.75A.42.42,0,0,0,46.25,83.33Z" transform="translate(0 -3.33)"/><rect class="cls-1" x="20" y="43.33" width="26.67" height="30" rx="0.42"/><rect class="cls-1" x="50" width="20" height="93.33" rx="6.67"/><path class="cls-1" d="M100,89.47,93.26,18.64C93,15.38,89.73,13,86.07,13.36L79.43,14c-3.66.35-6.38,3.27-6.07,6.53l6.71,70.83c.31,3.26,3.53,5.63,7.19,5.28L93.9,96C97.56,95.65,100.28,92.73,100,89.47Z" transform="translate(0 -3.33)"/></svg>