<svg id="Layer_1" data-name="Layer 1" xmlns="http://www.w3.org/2000/svg" viewBox="0 0 100 98.04"><defs><style>.cls-1{fill:#0a729b;}</style></defs><path class="cls-1" d="M50.11,1a2.27,2.27,0,0,0-1,.24l-45.75,24a2.21,2.21,0,0,0-1.17,1.94v4.35H98V27.13a2.22,2.22,0,0,0-1.18-1.94l-45.75-24A2.2,2.2,0,0,0,50.11,1ZM6.54,35.84v3a5.57,5.57,0,0,0,4.35,5.51v35H28.32v-35a5.56,5.56,0,0,0,4.36-5.51v-3Zm30.5,0v3a5.57,5.57,0,0,0,4.35,5.51v35H58.82v-35a5.56,5.56,0,0,0,4.36-5.51v-3Zm30.5,0v3a5.57,5.57,0,0,0,4.35,5.51v35H89.32v-35a5.56,5.56,0,0,0,4.36-5.51v-3ZM4.36,83.77a4.54,4.54,0,0,0-2.79,1A4.51,4.51,0,0,0,0,88.19v6A4.66,4.66,0,0,0,4.57,99H95.43A4.6,4.6,0,0,0,100,94.4v-6a4.6,4.6,0,0,0-4.57-4.62Z" transform="translate(0 -0.98)"/></svg>